<svg xmlns="http://www.w3.org/2000/svg" viewBox="0 0 1440 320">
  <path fill="#16a34a" fill-opacity="1" d="M0,224L30,224C60,224,120,224,180,186.7C240,149,300,75,360,64C420,53,480,107,540,106.7C600,107,660,53,720,48C780,43,840,85,900,133.3C960,181,1020,235,1080,234.7C1140,235,1200,181,1260,144C1320,107,1380,85,1410,74.7L1440,64L1440,320L1410,320C1380,320,1320,320,1260,320C1200,320,1140,320,1080,320C1020,320,960,320,900,320C840,320,780,320,720,320C660,320,600,320,540,320C480,320,420,320,360,320C300,320,240,320,180,320C120,320,60,320,30,320L0,320Z"></path>
</svg>